<svg width="200" height="200" viewBox="0 0 200 200" fill="none" xmlns="http://www.w3.org/2000/svg">
<rect width="200" height="200" rx="100" fill="#9EA3A4"/>
<path d="M155.744 104.851L155.754 111.168L114.229 63L91.382 63.0098H91.3624V104.851L91.3722 111.168L49.8471 63L27 63.0098L70.1633 112.645L87.929 133.678L88.135 133.922C89.0571 134.998 90.1558 135.898 91.4115 136.582C92.0001 136.905 92.6181 137.159 93.2557 137.384C94.4231 137.775 95.6788 138 96.9737 138C101.3 138 105.067 135.643 107.078 132.143C107.362 131.654 107.598 131.145 107.814 130.608C108.324 129.297 108.618 127.889 108.618 126.403C108.618 124.672 108.618 123.088 108.618 121.905V82.8305L134.545 112.645L152.311 133.678L152.517 133.922C153.439 134.998 154.538 135.898 155.794 136.582C156.382 136.905 157 137.159 157.638 137.384C158.805 137.775 160.061 138 161.356 138C165.682 138 169.449 135.643 171.46 132.143C171.744 131.654 171.98 131.145 172.196 130.608C172.706 129.297 173 127.889 173 126.403C173 124.672 173 123.088 173 121.905V63.0098H155.744V104.851Z" fill="white"/>
</svg>
