<svg width="179" height="50" viewBox="0 0 179 50"  xmlns="http://www.w3.org/2000/svg">
<rect x="0.5" y="0.5" width="178" height="49" rx="24.5" stroke="currentColor"/>
<path d="M120.016 21V28.2685C120.016 29.904 118.646 31.2294 116.956 31.2294C115.266 31.2294 113.896 29.904 113.896 28.2685V23.2244V21H111.003V26.4264V28.0782C111.003 28.1176 111 28.1553 111 28.1947C111 31.4 113.686 34 117 34C120.153 34 122.739 31.6444 122.98 28.6524H123V21H120.016Z" fill="currentColor"/>
<path d="M134 24.347V21.1254H130.355V15H127.377V21.1254H125V24.347H127.377V30C127.377 27.9976 128.62 26.2956 130.355 25.6547V24.347H134Z" fill="currentColor"/>
<path d="M132.09 31H132C132.015 31 132.031 31.0017 132.046 31.0017C132.061 31.0017 132.075 31 132.09 31Z" fill="currentColor"/>
<path d="M127.375 29.5278C127.375 31.9968 129.39 33.9999 131.875 33.9999C132.644 33.9999 133.367 33.8082 133.998 33.4718V30.8817H131.768C131.753 30.8817 131.738 30.8834 131.723 30.8834C131.707 30.8834 131.692 30.8817 131.677 30.8817V30.88C130.946 30.8565 130.358 30.2611 130.358 29.5278H130.351V25.3181C128.618 25.9387 127.375 27.5886 127.375 29.5278Z" fill="currentColor"/>
<path d="M139.199 23.6587H143.113H143.89H145.598V20.7278H139.199C136.953 20.7278 135.133 22.5253 135.133 24.7426C135.133 26.4261 136.182 27.8652 137.67 28.4616C137.67 28.46 137.671 28.4583 137.671 28.4583C137.671 28.46 137.671 28.4633 137.675 28.4649C137.954 28.5773 138.255 28.6351 138.557 28.6351H139.194C139.197 28.6351 139.199 28.6334 139.199 28.6301V28.6351H140.2H141.532C142.139 28.6351 142.629 29.1208 142.629 29.7189C142.629 30.3187 142.137 30.8027 141.532 30.8027H137.618H136.841H135.133V33.732H141.532C143.396 33.732 144.967 32.4929 145.446 30.8027C145.544 30.4574 145.596 30.094 145.596 29.7189C145.596 28.0353 144.547 26.5963 143.06 25.9999C143.058 25.9999 143.056 25.9982 143.054 25.9982C142.758 25.8793 142.44 25.828 142.121 25.828H141.53H140.529H139.197C138.59 25.828 138.1 25.3423 138.1 24.7442C138.101 24.1428 138.593 23.6587 139.199 23.6587ZM139.199 26.441C139.199 26.4377 139.194 26.436 139.192 26.4377C139.196 26.436 139.197 26.4344 139.199 26.4327V26.441ZM138.806 26.745C138.771 26.7764 138.732 26.8078 138.699 26.8408C138.732 26.8078 138.771 26.778 138.806 26.745ZM139.055 26.5401C139.017 26.5699 138.977 26.598 138.938 26.6277C138.977 26.598 139.017 26.5699 139.055 26.5401ZM138.475 27.0721C138.505 27.0374 138.54 27.006 138.572 26.9713C138.54 27.006 138.506 27.0374 138.475 27.0721ZM138.148 27.4984C138.128 27.5281 138.106 27.5562 138.088 27.586C138.108 27.5546 138.13 27.5281 138.148 27.4984ZM138.354 27.2208C138.327 27.2539 138.299 27.2869 138.272 27.32C138.297 27.2869 138.327 27.2555 138.354 27.2208ZM137.742 28.2766C137.757 28.2369 137.77 28.1956 137.787 28.156C137.77 28.1956 137.757 28.2353 137.742 28.2766ZM137.882 27.956C137.897 27.9247 137.911 27.8933 137.926 27.8635C137.911 27.8933 137.897 27.9247 137.882 27.956Z" fill="currentColor"/>
<path d="M107.034 20.8966V21.8763C105.958 21.1527 104.658 20.7297 103.257 20.7297C99.5458 20.7297 96.5371 23.7003 96.5371 27.3649C96.5371 31.0294 99.5458 34 103.257 34C104.658 34 105.956 33.577 107.034 32.8534V33.734H109.978V20.8966H107.034ZM103.257 31.0922C101.229 31.0922 99.586 29.4235 99.586 27.3632C99.586 25.3046 101.229 23.6343 103.257 23.6343C105.285 23.6343 106.929 25.303 106.929 27.3632C106.929 29.4218 105.285 31.0922 103.257 31.0922Z" fill="currentColor"/>
<path d="M89.1505 20.8257C88.0645 20.8257 87.0471 21.1165 86.172 21.6187V20.8951H83.2285V33.7325H86.172V31.7251V26.5984C86.172 24.9512 87.524 23.6162 89.1924 23.6162C90.8607 23.6162 92.2128 24.9512 92.2128 26.5984V31.6772V33.7325H95.0676V28.4538V26.79C95.0676 26.7504 95.0709 26.7124 95.0709 26.6727C95.0726 23.4444 92.422 20.8257 89.1505 20.8257Z" fill="currentColor"/>
<path d="M75.0366 20.728C73.6461 20.728 72.3542 21.146 71.2816 21.8598V15.0693H68.3382V26.8626C68.3264 27.0278 68.3164 27.1946 68.3164 27.3632C68.3164 27.5317 68.3248 27.6986 68.3382 27.8638V33.7323H71.2816V32.8666C72.3542 33.5803 73.6461 33.9983 75.0366 33.9983C78.7481 33.9983 81.7568 31.0277 81.7568 27.3632C81.7568 23.6986 78.7481 20.728 75.0366 20.728ZM75.0366 31.0921C73.0085 31.0921 71.3653 29.4234 71.3653 27.3632C71.3653 25.3046 73.0085 23.6342 75.0366 23.6342C77.0647 23.6342 78.708 25.3046 78.708 27.3632C78.708 29.4218 77.0631 31.0921 75.0366 31.0921Z" fill="currentColor"/>
<path d="M66.7371 26.005C66.1313 22.9551 63.4104 20.6553 60.144 20.6553C56.4325 20.6553 53.4238 23.6259 53.4238 27.2904C53.4238 30.9549 56.4325 33.9255 60.144 33.9255C62.721 33.9255 64.9583 32.4915 66.0861 30.3882H62.2491C61.6467 30.7881 60.9222 31.0227 60.1424 31.0227C58.5259 31.0227 57.1471 30.0198 56.6099 28.6088H63.6765H64.8981H66.7321C66.8074 28.2421 66.8509 27.8654 66.8626 27.4804V27.1021C66.8525 26.7584 66.8157 26.4214 66.7555 26.0926C66.7471 26.0628 66.7421 26.0331 66.7371 26.005ZM56.5781 26.0678C56.9981 24.8799 58.0088 23.9662 59.2655 23.6705C59.2923 23.6639 59.3174 23.6589 59.3442 23.6523C59.371 23.6457 59.3994 23.6408 59.4262 23.6358C59.56 23.6094 59.6956 23.5879 59.8345 23.5763C59.8462 23.5747 59.8579 23.5747 59.8696 23.573C59.9583 23.5664 60.0487 23.5614 60.139 23.5614C60.1407 23.5614 60.1407 23.5614 60.1424 23.5614H60.144C60.1474 23.5614 60.1507 23.5614 60.1558 23.5614C60.2361 23.5614 60.3147 23.5648 60.395 23.5714C60.4218 23.573 60.4503 23.5747 60.477 23.578C60.5523 23.5846 60.626 23.5928 60.6996 23.6044C60.7331 23.6094 60.7665 23.616 60.8 23.6226C60.8284 23.6275 60.8552 23.6341 60.882 23.6391C60.8954 23.6424 60.9088 23.6441 60.9222 23.6474C60.9255 23.6474 60.9272 23.649 60.9305 23.649C60.9406 23.6507 60.9506 23.654 60.9606 23.6556C62.2424 23.9365 63.2782 24.8601 63.705 26.0661H56.5781V26.0678Z" fill="currentColor"/>
<path d="M38.0137 33.5699H38.0434L38.0137 33.5339V33.5699Z" fill="currentColor"/>
<path d="M48.9961 33.5699H49.0258L48.9961 33.5339V33.5699Z" fill="currentColor"/>
<path d="M48.9866 27.9663L48.9882 29.0336L41.9049 20.895L38.0077 20.8967H38.0043V27.9663L38.006 29.0336L30.9226 20.895L27.0254 20.8967L34.3882 29.2831L37.4186 32.8369L37.4538 32.8782C37.6111 33.06 37.7985 33.212 38.0127 33.3276C38.1131 33.3822 38.2185 33.4251 38.3273 33.4631C38.5264 33.5292 38.7406 33.5672 38.9615 33.5672C39.6994 33.5672 40.342 33.169 40.685 32.5775C40.7336 32.4949 40.7737 32.409 40.8105 32.3182C40.8975 32.0968 40.9477 31.8588 40.9477 31.6077C40.9477 31.3153 40.9477 31.0476 40.9477 30.8477V24.2456L45.3704 29.2831L48.4009 32.8369L48.436 32.8782C48.5933 33.06 48.7808 33.212 48.9949 33.3276C49.0953 33.3822 49.2008 33.4251 49.3095 33.4631C49.5087 33.5292 49.7229 33.5672 49.9437 33.5672C50.6817 33.5672 51.3243 33.169 51.6673 32.5775C51.7158 32.4949 51.756 32.409 51.7928 32.3182C51.8798 32.0968 51.93 31.8588 51.93 31.6077C51.93 31.3153 51.93 31.0476 51.93 30.8477V20.8967H48.9866V27.9663Z" fill="currentColor"/>
</svg>
