<?xml version="1.0" encoding="utf-8"?><svg viewBox="0 0 200 200" xmlns="http://www.w3.org/2000/svg" xmlns:xlink="http://www.w3.org/1999/xlink"><style>:root>svg{display:none}:root>svg:target{display:block}</style><svg viewBox="0 0 50 50" id="arrow" xmlns="http://www.w3.org/2000/svg"><path d="M29.65 43.747l-1.94-2.195 17.067-15.087H0v-2.93h44.777L27.71 8.448l1.94-2.195L50 24.243v1.515L29.65 43.747z"/></svg><svg fill="none" viewBox="0 0 24 24" id="arrow-select" xmlns="http://www.w3.org/2000/svg"><path d="M12 13.172l4.95-4.95 1.415 1.414L12 16 5.637 9.636 7.05 8.222l4.95 4.95z" fill="#EA2F2F"/></svg><svg fill="none" viewBox="0 0 45 45" id="cursor_hover" xmlns="http://www.w3.org/2000/svg"><circle cx="22.5" cy="22.5" r="22" stroke="#EA2F2F"/></svg><svg fill="none" viewBox="0 0 45 45" id="cursor_hover_white" xmlns="http://www.w3.org/2000/svg"><circle cx="22.5" cy="22.5" r="22" stroke="#fff"/></svg><svg fill="none" viewBox="0 0 200 200" id="favicon" xmlns="http://www.w3.org/2000/svg"><rect width="200" height="200" rx="100" fill="#9EA3A4"/><path d="M155.744 104.851l.01 6.317L114.229 63l-22.847.01h-.02v41.841l.01 6.317L49.847 63 27 63.01l43.163 49.635 17.766 21.033.206.244a11.634 11.634 0 003.276 2.66c.59.323 1.207.577 1.845.802 1.167.391 2.423.616 3.718.616 4.326 0 8.093-2.357 10.104-5.857.284-.489.52-.998.736-1.535.51-1.311.804-2.719.804-4.205V82.83l25.927 29.815 17.766 21.033.206.244a11.63 11.63 0 003.277 2.66c.588.323 1.206.577 1.844.802 1.167.391 2.423.616 3.718.616 4.326 0 8.093-2.357 10.104-5.857.284-.489.52-.998.736-1.535.51-1.311.804-2.719.804-4.205V63.01h-17.256v41.841z" fill="#fff"/></svg><svg fill="none" viewBox="0 0 30 30" id="letter" xmlns="http://www.w3.org/2000/svg"><path d="M27.5 25.009a1.25 1.25 0 01-1.24 1.241H3.74a1.241 1.241 0 01-1.24-1.241V23.75H25V9.125l-10 9L2.5 6.875V5a1.25 1.25 0 011.25-1.25h22.5A1.25 1.25 0 0127.5 5v20.009zM5.543 6.25L15 14.762l9.457-8.512H5.543zM0 18.75h10v2.5H0v-2.5zm0-6.25h6.25V15H0v-2.5z" fill="#fff"/></svg><svg viewBox="0 0 179 50" id="logo" xmlns="http://www.w3.org/2000/svg"><rect x=".5" y=".5" width="178" height="49" rx="24.5" stroke="currentColor"/><path d="M120.016 21v7.268c0 1.636-1.37 2.961-3.06 2.961s-3.06-1.325-3.06-2.96V21h-2.893v7.078c0 .04-.003.077-.003.117C111 31.4 113.686 34 117 34c3.153 0 5.739-2.356 5.98-5.348h.02V21h-2.984zM134 24.347v-3.222h-3.645V15h-2.978v6.125H125v3.222h2.377V30c0-2.002 1.243-3.704 2.978-4.345v-1.308H134zM132.09 31H132l.046.002.044-.002z" fill="currentColor"/><path d="M127.375 29.528c0 2.469 2.015 4.472 4.5 4.472a4.5 4.5 0 002.123-.528v-2.59h-2.23l-.045.001-.046-.001v-.002a1.358 1.358 0 01-1.319-1.352h-.007v-4.21a4.479 4.479 0 00-2.976 4.21zM139.199 23.659h6.399v-2.931h-6.399c-2.246 0-4.066 1.797-4.066 4.015 0 1.683 1.049 3.122 2.537 3.719l.001-.004c0 .002 0 .005.004.007.279.112.58.17.882.17h.637c.003 0 .005-.002.005-.005v.005h2.333a1.09 1.09 0 011.097 1.084c0 .6-.492 1.084-1.097 1.084h-6.399v2.929h6.399a4.058 4.058 0 003.914-2.93c.098-.345.15-.708.15-1.083 0-1.684-1.049-3.123-2.536-3.72h-.006a2.499 2.499 0 00-.933-.171h-2.924a1.09 1.09 0 01-1.097-1.084 1.092 1.092 0 011.099-1.085zm0 2.782c0-.003-.005-.005-.007-.003l.007-.005v.008zm-.393.304c-.035.031-.074.063-.107.096.033-.033.072-.063.107-.096zm.249-.205c-.038.03-.078.058-.117.088.039-.03.079-.058.117-.088zm-.58.532c.03-.035.065-.066.097-.1-.032.034-.066.065-.097.1zm-.327.426c-.02.03-.042.058-.06.088.02-.031.042-.058.06-.088zm.206-.277l-.082.099c.025-.033.055-.064.082-.1zm-.612 1.056c.015-.04.028-.081.045-.121-.017.04-.03.08-.045.12zm.14-.321l.044-.093-.044.093zM107.034 20.897v.98a6.746 6.746 0 00-3.777-1.147c-3.711 0-6.72 2.97-6.72 6.635 0 3.664 3.009 6.635 6.72 6.635a6.75 6.75 0 003.777-1.147v.881h2.944V20.897h-2.944zm-3.777 10.195c-2.028 0-3.671-1.668-3.671-3.729 0-2.058 1.643-3.729 3.671-3.729 2.028 0 3.672 1.669 3.672 3.73 0 2.058-1.644 3.728-3.672 3.728zM89.15 20.826c-1.086 0-2.103.29-2.978.793v-.724h-2.944v12.838h2.944v-7.135c0-1.647 1.352-2.982 3.02-2.982 1.669 0 3.02 1.335 3.02 2.982v7.135h2.856V26.79c0-.04.003-.078.003-.117.002-3.229-2.649-5.847-5.92-5.847zM75.037 20.728c-1.39 0-2.683.418-3.755 1.132v-6.79h-2.944v11.793a7.013 7.013 0 00-.022.5c0 .169.009.336.022.5v5.87h2.944v-.866a6.758 6.758 0 003.755 1.131c3.711 0 6.72-2.97 6.72-6.635 0-3.664-3.009-6.635-6.72-6.635zm0 10.364c-2.029 0-3.672-1.669-3.672-3.729 0-2.058 1.644-3.729 3.672-3.729 2.028 0 3.671 1.67 3.671 3.73 0 2.058-1.645 3.728-3.671 3.728zM66.737 26.005c-.606-3.05-3.327-5.35-6.593-5.35-3.712 0-6.72 2.97-6.72 6.635 0 3.665 3.008 6.636 6.72 6.636a6.73 6.73 0 005.942-3.538H62.25c-.602.4-1.327.635-2.107.635a3.772 3.772 0 01-3.532-2.414h10.122a6.6 6.6 0 00.13-1.129v-.378a6.694 6.694 0 00-.106-1.01c-.009-.03-.014-.059-.019-.087zm-10.159.063a3.765 3.765 0 012.688-2.398l.078-.018.082-.016c.134-.027.27-.048.408-.06l.036-.003c.088-.007.179-.012.269-.012h.017c.08 0 .159.004.239.01l.082.007c.075.007.149.015.223.026.033.005.066.012.1.019l.082.016.04.008.009.002.03.007a3.768 3.768 0 012.744 2.41h-7.127v.002zM38.014 33.57h.03l-.03-.036v.036zM48.996 33.57h.03l-.03-.036v.036z" fill="currentColor"/><path d="M48.987 27.966l.001 1.068-7.083-8.139-3.897.002h-.004v7.07l.002 1.067-7.083-8.139-3.898.002 7.363 8.386 3.03 3.554.036.041a1.981 1.981 0 001.508.69 1.988 1.988 0 001.848-1.25c.087-.221.138-.46.138-.71v-7.362l4.422 5.037 3.03 3.554.036.041a1.983 1.983 0 001.508.69 1.988 1.988 0 001.849-1.25c.087-.221.137-.46.137-.71V20.897h-2.943v7.07z" fill="currentColor"/></svg></svg>